P3
7 5
255
115 251 211 68 229 231 89 210 254 74 143 231 92 122 255
46 82 102 110 136 152 159 177 188 211 208 203 226 192 68
115 251 211 68 229 231 89 210 254 74 143 231 92 122 255
46 82 102 110 136 152 159 177 188 211 208 203 226 192 68
115 251 211 68 229 231 89 210 254 74 143 231 92 122 255
46 82 102 110 136 152 159 177 188 211 208 203 226 192 68
115 251 211 68 229 231 89 210 254 74 143 231 92 122 255